# xmcd
#
# Track frame offsets: 
#        150
#        13658
#        26227
#        39817
#        52155
#        61046
#        70953
#        85875
#        97686
#        109135
#        120802
#        131895
#        144524
#        155137
#        166478
#        181645
#        190244
#
# Disc length: 2671 seconds
#
# Revision: 0
# Processed by: cddbd v1.5.2PL0 Copyright (c) Steve Scherf et al.
# Submitted via: ExactAudioCopy v0.99pb5
#
DISCID=de0a6d11
DTITLE=Ed Maly - Walking Shoes Blues
DYEAR=2006
DGENRE=Blues
TTITLE0=Walking Shoes Blues
TTITLE1=Blue
TTITLE2=While His Guitar Burned
TTITLE3=Susan Jones
TTITLE4=Telepathic Love
TTITLE5=Wheels
TTITLE6=Identity Theft
TTITLE7=Bad Girl
TTITLE8=Guitar Burn
TTITLE9=Something Going Wrong
TTITLE10=Throphy Man
TTITLE11=Rock My World
TTITLE12=Party Tonight
TTITLE13=Candy Cane
TTITLE14=Next Time, Hurt Me
TTITLE15=Statesboro Blues 
TTITLE16=Gasoline
EXTD=
EXTT0=
EXTT1=
EXTT2=
EXTT3=
EXTT4=
EXTT5=
EXTT6=
EXTT7=
EXTT8=
EXTT9=
EXTT10=
EXTT11=
EXTT12=
EXTT13=
EXTT14=
EXTT15=
EXTT16=
PLAYORDER=
